<svg width="1024" height="600" xmlns="http://www.w3.org/2000/svg"><path fill="#2AD0C3" stroke="#2AD0C3" d="m0 24 87.5 2 1 1 29 1 9 2 17 1 1 1h10l10 3h6l6 2 16 2 11 4 9 1 30 9 32 13h3l19 9 44 26 42 30q24.2 6.3 45 16 20.3 8.2 34.5 22.5l7 11 1 9q-1.5 7.5-6.5 11.5l-13 9-20 9h-4l-4 2-29 7-64 12h-6l-19 4-34 4-7 2h-9l-7 2h-8l-1 1-25 2-9 2h-9l-1 1h-11l-1 1-34 2-1 1-33 1-1 1h-44l-5 1-1-1h-41l-1-1Q7.9 264.4 0 262v-5h10.5l1 1h19l1 1h69l1-1 38-1 1-1h11l1-1 47-4 1-1 46-6 16-4 20-3 43-11 18-6 29-13q2.8-4.2 9-5l5.5-5.5q-.8-2.6 2.5-1.5 5.3-3.7 3.5-14.5-2.1-7.4-7.5-11.5h-2l-8-7-10-6-8-2-14-7h-2l-17-6h-2l-13-5-2 1q-7.1-2.4-11-8h-2l-2 1-9-7q-1.5 2.5-3-1l-10-3v2l-7-5H260q1.3 3.3-3.5 2l-6-4-.5 1.5.5 1.5-4-2-7.5 2.5 1 2-5.5 2.5q-3-6-6 0l-6.5 5.5-8.5 10.5-14 6-20 6-45 9-28 3-1 1-18 1-1 1-22 1-1 1L0 170V24Z"/><path fill="#91CFAD" stroke="#91CFAD" d="m236.5 15 13 3h11q1.3-2.3 6-1l26 9h3l21 9 13 3 6 3h4l24 11q49.4 26.1 95 56l48 12q31.1 9.4 59 22l40 23 14.5 13.5 10 16-.5 1.5 1.5.5-72.5 51.5q-6.2-1.8-8 1l-1-1-26-1-1 1h-20q-1.3 2.2-6 1l-1-1-62.5-1.5 2-3.5q2.7 1.1 2-1.5l-.5-1.5 2.5-.5-2-1 3-2-2-1 2-.5q-1.1-2.7 1.5-2l3.5-6q2.7 1.1 2-1.5l9-6-25-1 19.5-8.5 15.5-11.5q4.5-4.5 4-14-2.5-10.5-9.5-16.5-13.8-13.2-33-21-20.8-9.7-45-16l-42-30L291 72.5l8-3q.8-2.2-1.5-1.5l-34-21L236 34q1.1-2.7-1.5-2L211 18.5l14.5-1.5 3 1 8-3ZM773.5 106l1.5.5-9.5 4.5v-1l8-4ZM757.5 114l-1 2-2 1 1-2 2-1ZM744.5 121l-1 2-2 1 1-2 2-1ZM737.5 125l-1 2-2 1 1-2 2-1ZM730.5 129l-1 2 1-2ZM725.5 132l-1 2 1-2ZM720.5 135l-1 2 1-2ZM715.5 138l-1 2 1-2ZM710.5 141l-1 2 1-2ZM707.5 143l-1 2 1-2ZM704.5 145l-1 2 1-2ZM701.5 147l-1 2 1-2ZM693.5 152l-1 2 1-2ZM690.5 154l-1 2 1-2ZM687.5 156l-1 2 1-2ZM674.5 165l-1 2 1-2ZM671.5 167l-1 2 1-2ZM668.5 169l-1 2 1-2ZM661.5 174l-1 2 1-2ZM658.5 176l-1 2 1-2ZM654.5 179l-1 2 1-2ZM651.5 181l-1 2 1-2ZM648.5 183l-1 2 1-2ZM644.5 186l-1 2 1-2ZM641.5 188l-2 3 2-3ZM637.5 191l-1 2 1-2ZM634.5 193l-2 3 2-3Z"/><path fill="#F4C99A" stroke="#F4C99A" d="M224.5 0 900 .5l-33 42L843 81l-12.5 3-37 13-51 25-49 30-62 44h-2l.5-1.5-10-16-8.5-8.5-27-18-35-17-43-15-48-12-69-42-45-23-28-8-5-3-25-9-20-6h-4l-10-6-11-3-2-2h-3l-12-5V0ZM238.5 575l16 1q1.8-2.7 8-1l1 1h24l1 1h20l1 1h18l1 1 95 1 1 1h34l1 1 86 2 1 1h15l1 1h12l1 1 32 1 1 1h13l1 1 42 2 1 1 31 2 1 1h8l1 1h8l1 1 14.5 1.5-672.5.5v-1l26-9 34-7 25-2 1-1h9l9-2h18l1-1h16l1-1h40l1-1Z"/><path fill="#76BAEB" stroke="#76BAEB" d="M789.5 113h22l13 4q11.2 5.8 18.5 15.5l5 10 4 15q-1.7 6.3 1 8v23l-1 1v8l-1 1v7l-3 12v5l-6 26-17 54-16 41-17 36-15 26q-17.4 28.6-41.5 50.5-30.3 28.7-75 43l-39 8-30 1-1 1h-56l-1-1h-11l-26-5-30-11q-34.3-14.7-56.5-41.5l-9-13-8-18-2-9v-18l6-16 14.5-17.5 31-24 71-48 122-92 47-33q29.7-20.3 64-36l21-8 22-5ZM775 123l-14 3-20 7q-29 13-54 29l-71 50-81 63-77 56-21 17q-13 11-23 26l-5 11-2 9 1 19 4 13 15 23 20 18 15 10 19 9 15 6 19 5 29 5h13l1 1h21l1-1 27-1 1-1 22-2 17-4 27-10 12-6q22-12 40-28 19-18 34-40l17-28 17-35 15-38 13-41 10-43 2-22 1-1v-30q-2-2-1-7l-6-19-5-7-11-11-11-4-4-1h-22Z"/><path fill="#0CD3B8" stroke="#0CD3B8" d="m250.5 114 6 4h3.5q-1.3-3.3 3.5-2l6 4 2-1 10 4h2l10 7v-2q5.8 1.3 8 6l7 3h2l13 5h2q10.2 1.3 17 6h2l7 2 11 6h3l21.5 14.5 6 10v9l-3.5 5.5q-3.3-1.1-2.5 1.5l-5.5 5.5q-6.2.8-9 5l-29 13-44 13-53 11-46 6-1 1-47 4-1 1h-11l-1 1-38 1-1 1h-69l-1-1h-19l-1-1H0v-86.5l.5-.5h10l1-1h21l1-1h16l1-1 36-2 1-1 18-1 1-1h7l1-1 32-4 25-5 25-7 17-7 3.5-3.5 10.5-12.5 4-3 3 3 1-1q3.8.8 4.5-1.5l-1-2 8.5-2.5 2.5 1 .5-2Z"/><path fill="#68A5A3" stroke="#68A5A3" d="m17.5 8 5 1q1.2-2.3 6-1l1 1h9l3-1 4 1 1-1h66l4 1h32l1 1h12l2 1 3-1 1 1h11l1 1 17 1q7.2-3.3 19-2l20.5 4.5-9.5 2.5-4-1-1 1-10.5.5L236 32q-1.1 2.7 1.5 2l26 13L299 68l-1.5 3-9 1-11-6h-3l-10-5h-3l-5-3-30-10-18-5h-5l-11-4h-5l-17-4h-6l-10-3h-10l-1-1-17-1-9-2-29-1-1-1L0 24V9h16.5l1-1ZM426.5 219l29.5.5-9 6-2 3-3.5 4.5-3 2v1l1.5.5-3 2 2 1-3 1 1 2.5q-2.7-1.1-2 1.5l-1.5 2.5h35l1 1 26.5.5-2.5 1.5h-8l-1 1-2-1-1 1h-12l-1 1-2-1-1 1h-17l-3 1-1-1h-36l-1 1h-10l-1 1h-10l-10 2-47 4-1 1h-6l-7 2h-6l-29 5h-7l-1 1h-9l-1 1-29 2-1 1h-10l-1 1h-10l-1 1h-11l-11 2-26 1-1 1h-12l-1 1h-17l-1 1h-18l-1 1-81 1-1-1h-24L0 281v-18.5l3.5-.5 1 1h17l1 1h41l5 1 1-1h44l1-1 33-1 1-1h12l1-1h10l1-1h10l1-1h11l1-1h9l9-2h9l17-3h8l7-2h9l7-2 34-4 19-4 24-3 11-3h5l39-8 24-7Z"/><path fill="#67CFFD" stroke="#67CFFD" d="m742.5 155 18 1 9 4 9.5 7.5 4.5 8.5 1.5.5v2l4 15-.5 1.5q2.8-.6 1.5 5.5l1 1v24l-1 1v10l-3 12-1 11q-4.4 11.1-6 25l-8 26-5 10-7 21q-14.1 31.9-33 59L701.5 429l-10 9-22 15-34 15-9 3q-9.5 0-16 3h-7l-1 1h-9l-1 1h-30l-1-1-16-1-22-5q-4.9-4.1-13-5l-4-3-10-3q-8.3-8.3-19.5-13l-5-8-7-5.5-5-7-6-13-3-12v-13q3-17 11-29 15.8-22.2 36.5-39.5 71.8-63.7 151-120 23.5-17 51-30l26-10 16-3ZM719 179l-23 6-18 7-35 21-56 42q-38 31-72 65h-2q-8 13-19 24-2 8-7 13l-8 22v14l14 29q3 4 9 5l3 6 8 5 7 1 9 8h5l11 4h7l8 3h7l8 2 25-1q7-4 19-4 7-5 19-6l14-6q10-10 25-16 19-17 34-37l16-26q5-17 14-29l7-24 3-6 2-12 7-19 1-14 1-1v-13l1-1-1-28-2-9-3-5-6-5-1-4-3-3-2-2-6-4q-8 1-11-2l-4 1-5-1Z"/><path fill="#70C2F2" stroke="#70C2F2" d="M774.5 123h22l4 1 11 4 11.5 10.5 5 7 6 19q-1.5 5.5 1 7v30l-1 1-2 22-10 43-13 41-15 38-17 35-17 28Q745 432 725.5 450q-18 16-40 28l-12 6-27 10-17 4-22 2-1 1-27 1-1 1h-21l-1-1h-13l-29-5-19-5-15-6-19-9-15-10-19.5-18.5-15-23-4-13-1-19 2-9 5-11q9.5-14.5 22.5-25.5l21-17 77-56 81-63 71-50q25-16.5 54-29l20-7 14-3ZM757 138l-14 3-22 8q-34 16-63 37l-69 51-124 99q-15 12-26 28l-7 12-4 13v18l1 5q6 16 16 30l18 16 15 10 17 8 19 7h4l9 3q9 0 16 3l18 1 1 1 39-1 1-1h8l7-2h5l17-4 39-16 32-23q18-17 33-37l17-26 18-37 14-36 9-29 9-37 1-11 1-1v-9l1-1v-11l1-1v-16l-1-1v-9l-2-11q-3-12-10-19l-9-9-13-5h-22Z"/><path fill="#E24F79" stroke="#E24F79" d="M900.5 0h123l.5.5V19l-30.5 11-11 6Q955.2 51.2 934 72.5l-1 2 6 1-5.5.5-8-2h-42l-1 1h-9l-1 1-17 2-12.5 3 24-38.5L900.5 0ZM941.5 76l3.5.5-3.5.5v-1ZM946.5 77l4.5.5-4.5.5v-1ZM952.5 78l3.5.5-3.5.5v-1ZM957.5 79l2.5.5-2.5.5v-1ZM1008.5 95l2.5 1.5-1.5.5-1-2ZM1012.5 97l11.5 5.5-1.5.5-10-5v-1ZM1023.5 253l.5 107.5q-1.7 3.3-8.5 1.5l-17 7-26.5 21.5-31 36-34 45-29.5 30.5-20 15-16 7-47 15h-4l-28 9-12 2-16 6H730q1.3 3-2.5 2l-3.5 1-1.5 3-2.5.5 1 2.5q2.1 1.6 7.5 1l2 2q6.3-.8 9 2l14 1 4 2h6l16 4h6l30 6 31 9 19.5 7.5-135.5.5-16-3-27-2-1-1h-11l-11-2-42-2-1-1h-13l-1-1-32-1-1-1-28-1-1-1-86-2-1-1h-34l-1-1-95-1-1-1h-18l-1-1h-20l-1-1h-24q-1.7-2.7-8-1l-5 1-1-1h-11l-1 1h-40l-1 1h-16l-1 1h-18l-9 2h-9l-1 1-25 2-34 7-27 10H0v-70.5l3.5-.5 9-2h10l1-1 30-1 1 1 59 1 1 1h11l1 1h11l2 1q1.8-2.7 8-1l1 1 19 1 5-1 1 1h12l3-1 1 1h9l1-1h14l11.5-3v-2q2.7 1.1 2-1.5l6-3-.5-1.5 2.5-.5v-2q-.7-5.7 2-8-3.5-1.5-1-3l-1-3 1-3-5-15-4-6v-4l-5-8q-3.3-15.7-11-27l-8-23-10-38-1-20 3-9 4.5-4.5 13-3 1 1h8l7 2 17 1 9 2 23 1 1 1h19l36.5-25v-2.5l4-6-2-6.5-9.5-5-16-2-5-2h-10l-1-1h-10l-1-1h-50l-1 1h-22l-1 1-54 2-1 1h-17l-1 1h-18l-1 1h-19l-1 1h-19l-1 1L0 310v-17.5l.5-.5h97l1-1 42-1 1-1 49-2 1-1h15l1-1h15l1-1 53-2 1-1h14l1-1h14l1-1 82-1 1 1 25 1 19 4 8 3 6.5 6.5-1 2 1 2-7 10.5-36.5 22-25 11-32 7-63 5-16 5-9.5 8.5-4 10v20q3 17.5 9 32l14 29q19.7 34.3 48.5 59.5l34 24 27 12 10 1 4 2h13l5 2h9l1 1h43l1-1h17l1-1h10l1-1h11l1-1 28-1 1-1 23-1 1-1 18-1 1-1 22-1 9-2h10l8-2 26-2 1-1 41-5 27-6 15-2 35-9 21-7q26-16.5 45.5-39.5 19.7-22.8 36-49l31-51 10-19 18-28 17-24 26.5-28.5 19-13 14-4 4-3Z"/><path fill="#7CB3E5" stroke="#7CB3E5" d="M808.5 103h16l18 5q11.2 5.8 18.5 15.5 6.7 9.8 9 24-1.5 5.5 1 7v22l-1 1v10l-4 23-10 39-19 57-18 44-23 46-20 31q-15.7 21.3-35.5 38.5l-18 14-24 14-37 13-24 2-1 1h-9l-1 1h-10l-1 1h-11l-1 1h-19l-1 1h-68l-1-1h-12l-11-2-37-13q-35.3-15.7-58.5-43.5l-16-26-5-18v-16l5-15 12.5-15.5 33-24q45.4-25.6 87-55l130-97 46-32h2.5q-1.2-3 2.5-2 30.4-22.1 67-38l22-8 26-5ZM790 113l-22 5-21 8q-35 16-64 36l-47 33-122 92-71 48-31 24-15 18-6 16v18l2 9 8 18 9 13q22 26 57 41l30 11 26 5h11l1 1h56l1-1 30-1 39-8q44-14 75-43 24-22 41-50l15-26 17-36 16-41 17-54 6-26v-5l3-12v-7l1-1v-8l1-1v-23q-3-2-1-8l-4-15-5-10q-7-10-18-16l-13-4h-22Z"/><path fill="#66D1FF" stroke="#66D1FF" d="m718.5 179 5 1 4-1q3.3 3.2 11 2l6.5 3.5 1.5 2.5 3.5 2.5 1 4.5 6 4.5 3 5 2 9 1 28-1 1v13l-1 1-1 14-7 19-2 12-3 6-7 24q-9.3 12.2-14 29l-16 26q-15.4 20.6-34.5 37.5-14.1 6.4-25 16l-14 6q-11.3 1.2-19 6-11 .5-19 4l-25 1-8-2h-7l-8-3h-7l-6-3-10-1-3-2-1.5.5 1-1-5.5-5.5-7-1-7.5-5.5-3.5-5.5q-5.7-1.2-8.5-5.5l-14-29v-14l8-22q5.2-4.8 7-13 11.5-10.4 19-23.5h1.5q34-34.5 72-65l56-42 35-21 18-7 23-6Z"/><path fill="#84A8DB" stroke="#84A8DB" d="m836.5 89 18 1 19 5q11.8 5.2 19.5 14.5 8.2 9.8 11 25l1 24-1 1v8l-4 22-12 43q-20.4 62.1-46 119l-23 46-20 32q-16.9 24.1-38.5 43.5l-30 22-20 11-13 3-22 4-13 1-1 1-24 2-1 1h-9l-1 1h-11l-1 1-30 1-1 1h-27l-1 1h-40l-1-1h-23l-1-1-20-1-10-2-21-8Q400 493.5 374 463.5q-12.9-14.6-21-34l-5-16-1-17q3.4-20.6 17.5-30.5l25-16q49.3-21.7 93-49l41-27 75-54-2 3-84 62-34 23-71 44-18.5 15.5q-9 8.5-13 22l-1 5v16l5 18 10 18q10.9 15.6 25.5 27.5 17.2 14.3 39 24l41 14 19 1 1 1h68l1-1h19l1-1h11l1-1h10l1-1h9l1-1 24-2 25-8 12-5 24-14q23.2-16.3 41.5-37.5 21.3-24.7 37-55l18-37 18-44 16-47 11-40 6-32 1-33-1-1-1-11-4-12q-5.1-10.9-14.5-17.5-6.8-5.7-17-8-6.1.6-9-2h-16l-26 5-17 6-32 15-13 8 1-2 39-22 23-11h3l4-3h2l23-7 10-2h10l1-1Z"/><path fill="#84A8DB" stroke="#84A8DB" d="m718.5 137-1 2-2 1 1-2 2-1ZM713.5 140l-1 2 1-2ZM708.5 143l-1 2 1-2ZM705.5 145l-1 2 1-2ZM697.5 150l-1 2 1-2ZM694.5 152l-1 2 1-2ZM646.5 185l-1 2 1-2ZM628.5 198l-1 2 1-2ZM624.5 201l-1 2 1-2ZM621.5 203l-2 3 2-3ZM616.5 207l-1 2 1-2ZM613.5 209l-2 3-11 8 3-4 10-7Z"/><path fill="#F31B5B" stroke="#F31B5B" d="m1022.5 19 1.5.5v82l-1.5-.5-16-7-32-11-19-5-22.5-3.5 8.5-9.5q18.8-16.2 41-29l11-6 8-2 21-9ZM233.5 299h50l1 1 21 1 5 2 16 2 9.5 5 2 7.5q-4 2.3-4 7.5l-36.5 25h-19l-1-1-23-1-1-1-25-2-7-2-12-1-10 3-4.5 4.5q-4.6 7.9-3 22l5 24 11 36 9 19 5 16 5 8v4l4 6 5 17v2l-1 3q3.5 1.5 1 3l-2 8 .5 1.5-2.5.5.5 1.5-5.5 2.5q.7 2.6-2 1.5v2h-2.5l-9 3-24 1-3-1-1 1h-12l-5-1q-1.7 2.7-8 1l-1-1-19-1-2 1-1-1h-11l-1-1h-11l-1-1h-27l-1-1h-31l-1-1h-8l-1 1-32 1L0 529V310.5l.5-.5h21l1-1h31l1-1h23l1-1 39-1 1-1 55-2 1-1h17l1-1h17l1-1h22l1-1ZM1023.5 361l.5 239H866.5l-11-5-40-12-30-6h-6l-16-4h-6l-4-2-14-1q-2.7-2.8-9-2l-2-2q-5.4.6-7.5-1l-1-2.5 4-2q-.8-2.6 2.5-1.5l3.5-1q-1.4-3.7 4.5-2l16-6 12-2 7-3 45-12 37-13q28-15.5 47.5-39.5 22.9-25.1 42-54l37.5-42.5 20-15 17-7q6.2 1.8 8-1Z"/><path fill="#968FC4" stroke="#968FC4" d="M0 3h137.5l2 1 2-1 1 1 28 1 1 1h7l1 1 27.5 3.5-15.5 2.5-1-1h-11l-1-1q-8.9 1.4-14-1l-2 1-1-1h-12l-1-1h-30l-1-1-4 1-1-1h-66l-4 1-3-1-1 1h-9q-1.2-2.3-6-1l-5 1H0V3ZM870.5 76l2 1 1-1h19l1 1 13 1 21 6q22.4 9.6 36.5 27.5l8 16 1 13-1 1v8l-6 21-46 92-59 123-32 53q-17.6 25.4-40.5 45.5-13.7 12.8-31 22l-18 7-33 7-30 4-1 1h-6l-1 1-15 1-1 1-28 2-1 1h-11l-1 1h-12l-1 1-33 1-1 1h-26l-1 1h-53l-1-1h-20l-1-1h-12l-1-1-17-1-23-8q-42.1-17.9-69.5-50.5-16.4-19.1-27-44l-6-21-1-15q2.5-1.5 1-7l4-10 8.5-9.5 21-11 58-18 47-20 33-18 47-29 38-27-2 3-79 54-36 21-71 36q-11.2 6.8-19.5 16.5l-7 13-2 9v10l6 23 8 16q12.2 19.8 29.5 34.5 14.4 12.6 32 22l38 16 17 3h13l1 1 64 1 1-1h27l1-1h16l1-1 35-2 1-1h8l1-1 29-3 35-7q40.9-20.1 69.5-52.5 22.2-25.3 39-56l17-33 19-43 21-54 19-58 8-35 1-15 1-1v-16l-4-19q-4.9-12.6-14.5-20.5-9-7.5-22-11l-10-2h-7l-1-1h-10l-1 1h-10l-10 2-20 6v-1l33-12 42-9Z"/><path fill="#968FC4" stroke="#968FC4" d="m792.5 98 1.5.5-2.5 1.5 1-2ZM623.5 201l-1 2 1-2ZM619.5 204l-1 2 1-2ZM615.5 207l-1 2 1-2ZM612.5 209l-1 2 1-2ZM608.5 212l-1 2 1-2ZM601.5 217l-1 2 1-2ZM597.5 220l-1 2 1-2ZM594.5 222l-1 2 1-2ZM590.5 225l-1 2 1-2ZM587.5 227l-2 3 2-3ZM583.5 230l-1 2 1-2ZM580.5 232l-2 3 2-3ZM576.5 235l-1 2 1-2ZM573.5 237l-1 2 1-2ZM569.5 240l-1 2 1-2ZM566.5 242l-1 2 1-2ZM408.5 252l36.5.5-43.5 7.5-49 3-1 1h-11l-1 1h-11l-1 1-39 1v-1l27-3 14-3 47-4 10-2h10l1-1h10l1-1ZM281.5 267l2.5.5-2.5.5v-1Z"/><path fill="#6ACAF9" stroke="#6ACAF9" d="M756.5 138h22l13 5 9.5 8.5q6.7 7.8 10 19l2 11v9l1 1v16l-1 1v11l-1 1v9l-1 1-1 11-9 37-9 29-14 36-18 37-17 26q-14.7 20.8-33.5 37.5l-32 23-39 16-17 4h-5l-7 2h-8l-1 1-39 1-1-1-18-1q-6.5-3-16-3l-9-3h-4l-19-7-17-8-15-10-17.5-16.5q-9.9-13.1-16-30l-1-5v-18l4-13 7-12q10.9-15.6 25.5-27.5l124-99 69-51q29.3-20.7 63-37l22-8 14-3ZM743 155l-16 3-26 10q-28 13-51 30-80 56-151 120-21 17-37 40-8 12-11 29v13l3 12 6 13 5 7 7 5 5 8q11 5 20 13l10 3 4 3q8 1 13 5l22 5 16 1 1 1h30l1-1h9l1-1h7q6-3 16-3l9-3 34-15 22-15 10-9 25-28 15-24-1-2h2l17-33 17-46 9-36 1-11 3-12v-10l1-1v-24l-1-1q1-7-1-6v-1l-4-15v-2l-1-1-5-8-9-8-9-4-18-1Z"/><path fill="#B36B9E" stroke="#B36B9E" d="M0 0h223.5l13 6h3l2 2 11 3 9.5 5.5-1.5 1.5h-11l-26-6-16-1-14-3h-7l-1-1-23-2-1-1h-19l-2-1-2 1-1-1H0V0ZM883.5 74h42l1 1 14 1 6 2 15 2 36 11 26.5 12v149.5l-2.5 2.5q-30.4 8.6-47.5 30.5-5.1 9.9-14 16l-21 30-42 71-27 42q-18.5 27-42.5 48.5l-27 20-54 15-15 2-27 6h-6l-1 1h-6l-29 5-26 2-8 2-41 3-1 1h-9l-10 2-37 2-1 1h-14l-1 1h-11l-1 1h-10l-1 1h-17l-1 1h-43l-1-1h-9l-5-2h-13q-3-3-10-2l-24-9-35-23-27.5-26.5-18-23-21-39-10-31q1.3-4.8-1-6v-20q2.4-11.1 10.5-16.5l5-3 14-4 63-5 32-7 25-11 36.5-22 6-7.5 1-4-1-2 1-1-6.5-6.5-20-6-16-1-1-1h-15l-1-1h-56l-1 1h-25l-1 1h-14l-1 1h-14l-1 1-53 2-1 1-48 2-1 1h-15l-1 1h-16l-1 1h-18l-1 1h-23l-1 1H0v-11h4.5l1 1h24l1 1h52l1-1h28l1-1 36-1 1-1 26-1 1-1h12l11-2 33-2 1-1h9l1-1 29-2 1-1h10l1-1 43-1 1-1 36-2 1-1h11l1-1h13l1-1h10l1-1 13-1 24-5 26-1 2-1h14l2-1h10l9-2 28-1 1 1h18l1 1q1.5-2.5 7-1v1q-52.7 37.8-112 69l-47 20-63 20q-13.9 5.1-22.5 15.5l-6 13-1 14 3 17 11 27q16.5 29.5 41.5 50.5 29.2 24.8 71 37l17 1 1 1h12l1 1h20l1 1h53l1-1h26l1-1 33-1 1-1h12l1-1h11l1-1 28-2 1-1 15-1 1-1h6l1-1 30-4 33-7 24-10 13-9 34.5-32.5q21.9-25.6 39-56l34-66 36-77 46-92 6-21 1-15q-2.5-1.5-1-7l-5-12L949.5 97q-11.6-9.4-27-15l-30-6h-19l-2 1v-1q3.5-2.5 11-1l1-1Z"/><path fill="#B36B9E" stroke="#B36B9E" d="m867.5 76 2.5.5-2.5.5v-1ZM861.5 77l2.5.5-2.5.5v-1ZM855.5 78l2.5.5-2.5.5v-1ZM841.5 81l2.5.5-2.5.5v-1Z"/></svg>